<svg width="18" height="15" viewBox="0 0 18 15" fill="none" xmlns="http://www.w3.org/2000/svg">
<path fill-rule="evenodd" clip-rule="evenodd" d="M17.9996 7.5C17.9996 7.91419 17.6638 8.24996 17.2496 8.24996H2.56076L8.03077 13.719C8.32381 14.0121 8.32381 14.4872 8.03077 14.7802C7.73773 15.0733 7.26262 15.0733 6.96958 14.7802L0.219953 8.0306C0.0791282 7.88993 2.38405e-07 7.69905 2.38405e-07 7.5C2.38405e-07 7.30096 0.0791282 7.11007 0.219953 6.96941L6.96958 0.219781C7.26262 -0.0732591 7.73773 -0.0732591 8.03077 0.219781C8.32381 0.51282 8.32381 0.987932 8.03077 1.28097L2.56076 6.75004H17.2496C17.6638 6.75004 17.9996 7.08581 17.9996 7.5Z" fill="#1C120D"/>
</svg>
