<svg width="72" height="72" viewBox="0 0 72 72" fill="none" xmlns="http://www.w3.org/2000/svg">
<path d="M18.2766 10.819C17.821 10.3644 17.2037 10.1091 16.5601 10.1091C15.9165 10.1091 15.2992 10.3644 14.8437 10.819L10.8204 14.8447C10.3666 15.3002 10.1118 15.9169 10.1118 16.5599C10.1118 17.2029 10.3666 17.8197 10.8204 18.2751L13.0358 20.4905C14.9061 17.4744 17.3325 14.8411 20.1857 12.7306L18.2766 10.819ZM59.2695 51.8144C57.1562 54.6651 54.5234 57.0909 51.5096 58.9643L53.7274 61.1796C54.1828 61.6327 54.799 61.887 55.4414 61.887C56.0838 61.887 56.7 61.6327 57.1554 61.1796L61.1811 57.1539C61.6342 56.6986 61.8885 56.0823 61.8885 55.4399C61.8885 54.7976 61.6342 54.1813 61.1811 53.7259L59.2695 51.8144ZM34.9721 26.0129C35.031 26.2078 35.0509 26.4124 35.0307 26.615C35.0104 26.8177 34.9504 27.0143 34.8541 27.1937C34.7577 27.3731 34.6269 27.5317 34.4692 27.6605C34.3115 27.7893 34.1299 27.8857 33.9348 27.9442L28.2717 29.6385C27.8774 29.7564 27.4524 29.7128 27.0902 29.5173C26.728 29.3219 26.4582 28.9906 26.3403 28.5962C26.2224 28.2019 26.266 27.7769 26.4615 27.4147C26.6569 27.0525 26.9883 26.7828 27.3826 26.6649L33.0432 24.9706C33.8632 24.7237 34.7251 25.1929 34.9721 26.0129ZM45.1154 31.3772C45.3165 31.4096 45.5092 31.4813 45.6826 31.5882C45.8559 31.6952 46.0065 31.8352 46.1258 32.0003C46.2451 32.1654 46.3306 32.3524 46.3776 32.5506C46.4246 32.7488 46.4321 32.9543 46.3996 33.1554L45.4562 38.9914C45.3907 39.3975 45.1665 39.761 44.8331 40.0018C44.4996 40.2427 44.0841 40.3412 43.678 40.2757C43.2719 40.2102 42.9084 39.986 42.6676 39.6526C42.4267 39.3191 42.3282 38.9036 42.3937 38.4975L43.3372 32.6614C43.3696 32.4604 43.4413 32.2676 43.5482 32.0943C43.6551 31.9209 43.7952 31.7703 43.9603 31.651C44.1254 31.5318 44.3124 31.4462 44.5106 31.3992C44.7088 31.3522 44.9143 31.3447 45.1154 31.3772ZM34.3991 46.2401C34.5439 46.3835 34.7156 46.4969 34.9042 46.5739C35.0929 46.651 35.2949 46.6901 35.4986 46.689C35.7024 46.688 35.904 46.6468 36.0918 46.5679C36.2797 46.489 36.4501 46.3738 36.5935 46.229C36.7369 46.0842 36.8503 45.9126 36.9273 45.7239C37.0043 45.5353 37.0434 45.3333 37.0424 45.1295C37.0414 44.9258 37.0002 44.7242 36.9213 44.5363C36.8424 44.3485 36.7272 44.178 36.5824 44.0346L32.3838 39.8756C32.0901 39.5938 31.6975 39.4388 31.2905 39.4439C30.8835 39.4491 30.4949 39.614 30.2084 39.903C29.9219 40.1921 29.7606 40.5822 29.7591 40.9892C29.7576 41.3962 29.9162 41.7875 30.2006 42.0786L34.3991 46.2401ZM41.7096 26.7859C41.5601 26.9474 41.3795 27.077 41.1787 27.167C40.9779 27.257 40.7609 27.3055 40.5409 27.3097C40.3209 27.3139 40.1023 27.2736 39.8982 27.1912C39.6941 27.1089 39.5088 26.9862 39.3532 26.8305C39.1977 26.6748 39.0752 26.4893 38.9931 26.2852C38.911 26.081 38.8709 25.8624 38.8753 25.6423C38.8797 25.4223 38.9285 25.2055 39.0187 25.0047C39.1089 24.804 39.2387 24.6236 39.4004 24.4742C39.7108 24.1874 40.1201 24.0319 40.5427 24.0404C40.9652 24.0488 41.368 24.2206 41.6667 24.5195C41.9653 24.8185 42.1366 25.2216 42.1446 25.6441C42.1526 26.0666 41.9967 26.4758 41.7096 26.7859ZM44.8511 46.6402C44.7005 46.7973 44.5201 46.9228 44.3204 47.0092C44.1207 47.0957 43.9057 47.1414 43.6881 47.1437C43.4705 47.146 43.2546 47.1049 43.0531 47.0226C42.8516 46.9404 42.6686 46.8188 42.5147 46.6649C42.3608 46.5111 42.2392 46.328 42.157 46.1265C42.0748 45.925 42.0336 45.7091 42.0359 45.4915C42.0382 45.2739 42.084 45.059 42.1704 44.8593C42.2569 44.6596 42.3823 44.4791 42.5394 44.3285C42.8498 44.0417 43.2592 43.8863 43.6817 43.8947C44.1042 43.9032 44.5071 44.0749 44.8057 44.3739C45.1044 44.6729 45.2757 45.0759 45.2837 45.4984C45.2917 45.9209 45.1382 46.3301 44.8511 46.6402ZM23.0309 39.6484C23.1802 39.81 23.3607 39.9398 23.5614 40.03C23.7621 40.1202 23.979 40.169 24.199 40.1734C24.419 40.1778 24.6377 40.1378 24.8418 40.0556C25.046 39.9735 25.2315 39.851 25.3872 39.6955C25.5429 39.54 25.6656 39.3546 25.7479 39.1505C25.8302 38.9465 25.8705 38.7278 25.8664 38.5078C25.8622 38.2878 25.8137 38.0709 25.7237 37.8701C25.6336 37.6692 25.504 37.4887 25.3426 37.3391C25.0325 37.052 24.6233 36.8961 24.2007 36.9041C23.7782 36.9121 23.3752 37.0834 23.0762 37.3821C22.7772 37.6807 22.6055 38.0836 22.597 38.5061C22.5886 38.9286 22.7441 39.338 23.0309 39.6484Z" fill="#72DC60"/>
<path d="M51.7638 50.1646C47.795 54.1333 42.4122 56.3629 36.7996 56.3629C31.1869 56.3629 25.8041 54.1333 21.8353 50.1646C17.8666 46.1958 15.637 40.813 15.637 35.2003C15.637 29.5877 17.8666 24.2049 21.8353 20.2361C25.8206 16.3511 31.1759 14.1925 36.7413 14.228C42.3067 14.2634 47.6341 16.49 51.5696 20.4254C55.505 24.3608 57.7316 29.6882 57.767 35.2537C57.8024 40.8191 55.6438 46.1744 51.7588 50.1596M38.9754 52.4565C40.1732 52.6516 41.3612 52.8418 42.438 52.5059C43.5395 52.1478 44.3891 51.2834 45.2338 50.419C45.7475 49.8954 46.2587 49.3718 46.8267 48.9643C47.3874 48.5642 48.032 48.2406 48.6791 47.9196C49.7657 47.3762 50.8574 46.8329 51.544 45.9018C52.2182 44.988 52.396 43.7926 52.5763 42.5923C52.6825 41.8662 52.7912 41.1401 53.0085 40.4733C53.2135 39.8435 53.5395 39.2236 53.868 38.5963C54.4336 37.517 55.0115 36.4155 55.0115 35.1954C55.0115 34.0025 54.436 32.8961 53.8705 31.8094C53.5327 31.2039 53.2444 30.572 53.0085 29.92C52.7912 29.2507 52.68 28.5221 52.5689 27.796C52.3862 26.6032 52.2034 25.4103 51.5464 24.4866C50.8673 23.5431 49.7682 23.0047 48.6766 22.4614C48.033 22.167 47.4144 21.821 46.8267 21.4266C46.2803 20.9981 45.7683 20.5274 45.2955 20.0188C44.4311 19.1396 43.5593 18.248 42.438 17.8825C41.376 17.5367 40.2029 17.7318 39.005 17.9294C38.276 18.0697 37.5368 18.1507 36.7946 18.1714C36.0784 18.1714 35.3449 18.0529 34.6138 17.9343C33.416 17.7417 32.2281 17.549 31.1512 17.8849C30.0497 18.243 29.2001 19.1099 28.3555 19.9719C27.8418 20.4955 27.3305 21.019 26.7625 21.429C26.1733 21.8244 25.554 22.1729 24.9102 22.4713C23.8235 23.0146 22.7319 23.558 22.0453 24.489C21.371 25.4029 21.1932 26.5982 21.0129 27.7985C20.9275 28.5164 20.7829 29.2259 20.5807 29.92C20.3462 30.5674 20.0588 31.1944 19.7212 31.7946C19.1532 32.8738 18.5777 33.9778 18.5777 35.1954C18.5777 36.3883 19.1532 37.4947 19.7188 38.5814C20.0497 39.2162 20.3733 39.841 20.5807 40.4733C20.798 41.1401 20.9092 41.8687 21.0203 42.5948C21.2031 43.7901 21.3858 44.9806 22.0428 45.9042C22.722 46.8477 23.821 47.3886 24.9127 47.9294C25.5597 48.2456 26.2043 48.5642 26.7625 48.9667C27.2984 49.3619 27.7948 49.8657 28.2937 50.3745C29.1582 51.2513 30.03 52.1428 31.1512 52.5084C32.2429 52.8541 33.4308 52.6565 34.6262 52.459C35.3523 52.3404 36.0833 52.2194 36.7946 52.2194C37.5108 52.2194 38.2444 52.3379 38.9754 52.4565Z" fill="#72DC60"/>
<path d="M25.8916 4.27819L25.8471 4.23378L25.3532 3.73986C25.3532 3.73985 25.3532 3.73984 25.3532 3.73983C23.0203 1.40917 19.8576 0.1 16.56 0.1C13.2624 0.1 10.0996 1.40917 7.76676 3.73983L25.8916 4.27819ZM25.8916 4.27819L25.9509 4.25747M25.8916 4.27819L25.9509 4.25747M25.9509 4.25747C37.4621 0.234075 50.7729 2.8147 59.9791 12.0209L60.0498 11.9502M25.9509 4.25747L60.0498 11.9502M60.0498 11.9502L59.9791 12.0209C69.1878 21.2271 71.7659 34.5403 67.7425 46.0491L67.7218 46.1084M60.0498 11.9502L67.7218 46.1084M67.7218 46.1084L67.7662 46.1528M67.7218 46.1084L67.7662 46.1528M67.7662 46.1528L68.2602 46.6468M67.7662 46.1528L68.2602 46.6468M68.2602 46.6468C70.5908 48.9796 71.9 52.1424 71.9 55.44M68.2602 46.6468L71.9 55.44M71.9 55.44C71.9 58.7377 70.5908 61.9004 68.2601 64.2333M71.9 55.44L68.2601 64.2333M68.2601 64.2333L64.2345 68.2589M68.2601 64.2333L64.2345 68.2589M64.2345 68.2589C61.9015 70.5903 58.7383 71.9 55.44 71.9M64.2345 68.2589L55.44 71.9M55.44 71.9C52.1418 71.9 48.9786 70.5904 46.6456 68.259L55.44 71.9ZM3.74109 7.7655L7.76672 3.73986L46.6455 68.2589L45.3046 66.9155L45.2638 66.8746L45.2081 66.8895C39.6586 68.3632 33.8192 68.3529 28.2749 66.8594C22.7306 65.366 17.676 62.4418 13.6176 58.38L13.6176 58.3799C9.55654 54.3215 6.63312 49.2673 5.14011 43.7235C3.6471 38.1797 3.6369 32.3409 5.11055 26.7919L5.12535 26.7362L5.08455 26.6954L3.74109 25.3545C1.40966 23.0215 0.1 19.8582 0.1 16.56C0.1 13.2618 1.40965 10.0985 3.74107 7.76552C3.74107 7.76552 3.74108 7.76551 3.74109 7.7655ZM22.0024 7.09307L22.0023 7.09306C20.5583 5.65093 18.6008 4.84091 16.56 4.84091C14.5191 4.84091 12.5617 5.65093 11.1176 7.09306L11.1176 7.09311L7.09187 11.1188L7.09182 11.1188C5.64969 12.5629 4.83968 14.5204 4.83968 16.5612C4.83968 18.6021 5.64969 20.5595 7.09182 22.0036L7.0919 22.0037L10.5115 25.4208C8.64346 30.4457 8.25447 35.9011 9.3913 41.141C10.5327 46.4018 13.1639 51.2231 16.9709 55.0291C20.7769 58.8361 25.5982 61.4673 30.859 62.6087C36.0989 63.7455 41.5543 63.3565 46.5792 61.4885L49.9988 64.9081L49.9989 64.9082C51.443 66.3503 53.4004 67.1603 55.4412 67.1603C57.4821 67.1603 59.4395 66.3503 60.8836 64.9082L60.8837 64.9081L64.9094 60.8824L64.9094 60.8824C66.3515 59.4383 67.1616 57.4809 67.1616 55.44C67.1616 53.3992 66.3515 51.4417 64.9094 49.9977L64.9093 49.9976L62.1389 47.2295C67.0828 36.8161 65.2437 23.9871 56.6283 15.3717C48.0129 6.75629 35.1839 4.91963 24.7729 9.86116L22.0024 7.09307Z" fill="#72DC60" stroke="#72DC60" stroke-width="0.2"/>
</svg>
