<svg width="79" height="67" viewBox="0 0 79 67" fill="none" xmlns="http://www.w3.org/2000/svg">
<path d="M70.7894 0L70.7851 63.8084C71.9274 65.6882 73.1093 66.4111 74.1004 66.4062C75.0839 66.4016 76.2531 65.6701 77.3732 63.8466L74.3142 31.2558L74.2785 30.8588L74.5234 30.5424C78.0386 26.0319 79.267 18.2393 78.2643 11.6482C77.7629 8.35241 76.7133 5.36944 75.2436 3.26071C74.0111 1.49231 72.5409 0.364238 70.7897 0H70.7894ZM8.96933 0.000664331L8.96667 11.1448L6.88151 11.1421V0.00132803H4.50666L4.50699 11.1426H2.41885V0.00132803H1.99796e-08V17.1388C-0.000165996 19.0342 1.03428 20.0852 2.66289 20.735L3.33691 21.0043L3.32197 21.7298C2.98994 35.7697 2.66173 49.8095 2.33219 63.8493C3.46773 65.7073 4.63416 66.4109 5.60535 66.4062C6.57654 66.4016 7.74197 65.6796 8.86308 63.8443C8.47858 49.8081 8.09448 35.7718 7.71076 21.7354L7.69084 21.005L8.36702 20.7383C10.081 20.0567 11.1958 18.8999 11.1958 17.1398V0.000664331H8.96933ZM39.3148 6.47461C32.226 6.47461 25.4275 9.29064 20.4149 14.3032C15.4023 19.3158 12.5863 26.1143 12.5863 33.2031C12.5863 40.292 15.4023 47.0905 20.4149 52.103C25.4275 57.1156 32.226 59.9316 39.3148 59.9316C46.4037 59.9316 53.2022 57.1156 58.2147 52.103C63.2273 47.0905 66.0433 40.292 66.0433 33.2031C66.0433 26.1143 63.2273 19.3158 58.2147 14.3032C53.2022 9.29064 46.4037 6.47461 39.3148 6.47461Z" fill="#72DC60"/>
<circle cx="39.3148" cy="33.2031" r="21.5" fill="white"/>
</svg>
